<svg id="visual" viewBox="0 0 900 600" width="900" height="600" xmlns="http://www.w3.org/2000/svg" xmlns:xlink="http://www.w3.org/1999/xlink" version="1.1"><rect x="0" y="0" width="900" height="600" fill="#82b0f5"></rect><path d="M0 429L8.3 417.7C16.7 406.3 33.3 383.7 50 386.5C66.7 389.3 83.3 417.7 100 430.2C116.7 442.7 133.3 439.3 150 429C166.7 418.7 183.3 401.3 200 400.8C216.7 400.3 233.3 416.7 250 419.3C266.7 422 283.3 411 300 403.7C316.7 396.3 333.3 392.7 350 390.3C366.7 388 383.3 387 400 394.3C416.7 401.7 433.3 417.3 450 437.2C466.7 457 483.3 481 500 488.3C516.7 495.7 533.3 486.3 550 489.8C566.7 493.3 583.3 509.7 600 502.7C616.7 495.7 633.3 465.3 650 440.2C666.7 415 683.3 395 700 402.8C716.7 410.7 733.3 446.3 750 450.5C766.7 454.7 783.3 427.3 800 430.7C816.7 434 833.3 468 850 486.3C866.7 504.7 883.3 507.3 891.7 508.7L900 510L900 601L891.7 601C883.3 601 866.7 601 850 601C833.3 601 816.7 601 800 601C783.3 601 766.7 601 750 601C733.3 601 716.7 601 700 601C683.3 601 666.7 601 650 601C633.3 601 616.7 601 600 601C583.3 601 566.7 601 550 601C533.3 601 516.7 601 500 601C483.3 601 466.7 601 450 601C433.3 601 416.7 601 400 601C383.3 601 366.7 601 350 601C333.3 601 316.7 601 300 601C283.3 601 266.7 601 250 601C233.3 601 216.7 601 200 601C183.3 601 166.7 601 150 601C133.3 601 116.7 601 100 601C83.3 601 66.7 601 50 601C33.3 601 16.7 601 8.3 601L0 601Z" fill="#75a7f3" stroke-linecap="round" stroke-linejoin="miter"></path></svg>